 <svg  version="1.0" xmlns="http://www.w3.org/2000/svg"  width="339.000000pt" height="318.000000pt" viewBox="0 0 339.000000 318.000000"  preserveAspectRatio="xMidYMid meet">  <g transform="translate(0.000000,318.000000) scale(0.100000,-0.100000)" fill="#ffffff" stroke="none"> <path d="M1884 2745 c-14 -14 -31 -25 -38 -25 -30 0 -82 -86 -73 -121 4 -15 0 -30 -10 -41 -21 -24 -43 -23 -43 2 0 23 -46 46 -111 55 -43 5 -49 3 -77 -25 -17 -16 -37 -30 -46 -30 -10 0 -13 -6 -10 -15 4 -9 -4 -25 -20 -40 -14 -13 -26 -32 -26 -42 1 -23 37 -103 47 -103 51 -1 30 -68 -32 -98 -22 -11 -56 -23 -75 -27 -57 -11 -241 -74 -297 -102 -29 -14 -53 -31 -53 -37 0 -7 -23 -36 -50 -65 -28 -30 -53 -65 -57 -80 -7 -31 -32 -71 -44 -71 -21 0 -120 -85 -126 -109 -3 -14 -13 -36 -21 -48 -11 -19 -13 -58 -11 -207 4 -158 7 -187 22 -203 9 -11 17 -23 17 -27 0 -15 115 -116 132 -116 11 0 15 -5 12 -15 -3 -8 4 -26 15 -41 12 -15 21 -35 21 -45 0 -25 133 -159 158 -159 11 0 30 -8 43 -18 75 -54 273 -99 456 -102 27 0 39 -37 48 -147 5 -59 13 -90 26 -107 10 -13 19 -29 19 -35 0 -6 5 -11 11 -11 6 0 22 -9 36 -20 33 -26 50 -25 107 5 26 14 52 25 59 25 7 0 18 9 25 20 7 11 18 20 25 20 7 0 26 14 42 30 16 16 33 30 38 30 5 0 27 20 50 45 24 25 50 45 60 45 9 0 17 5 17 11 0 14 46 58 82 79 15 8 54 40 88 70 119 105 145 127 164 133 11 5 16 13 12 22 -5 15 32 96 59 125 8 9 15 21 15 26 0 6 20 20 45 32 25 12 45 27 45 32 0 6 14 25 31 43 17 18 37 46 44 62 19 46 26 158 16 283 l-9 113 -43 52 c-24 29 -49 56 -56 60 -7 4 -13 15 -13 22 0 8 -9 15 -20 15 -37 0 -67 29 -80 76 -7 24 -16 47 -21 50 -5 3 -17 25 -28 49 -14 33 -24 43 -35 39 -10 -4 -16 -1 -16 10 0 9 -16 20 -42 27 -54 16 -53 15 -38 34 11 13 8 15 -16 15 -31 0 -110 22 -142 39 -11 6 -39 12 -64 14 -25 2 -56 11 -69 20 -13 10 -29 17 -35 17 -6 0 -18 7 -25 16 -7 9 -23 20 -36 25 -26 10 -31 45 -12 82 19 37 71 86 85 80 8 -3 14 1 14 10 0 8 14 31 30 52 40 51 46 77 26 129 -18 46 -59 92 -73 83 -5 -3 -17 3 -26 14 -25 29 -91 26 -123 -6z m133 -67 c34 -32 32 -99 -3 -127 -15 -12 -35 -21 -45 -21 -17 0 -59 -44 -59 -62 0 -8 -24 -47 -77 -129 -24 -36 -23 -69 2 -69 24 0 72 -49 78 -78 7 -32 33 -42 112 -42 23 0 59 -7 78 -15 20 -8 50 -15 66 -15 29 0 46 -6 151 -54 24 -11 63 -38 85 -60 l40 -41 -1 -441 c0 -242 -4 -446 -8 -452 -4 -7 -116 -102 -249 -212 -284 -235 -308 -256 -365 -309 -23 -23 -50 -41 -60 -41 -38 0 -41 17 -35 180 l6 158 -24 15 c-16 10 -63 17 -144 22 -116 6 -254 27 -285 44 -9 5 -31 12 -50 15 -45 9 -95 34 -145 71 -74 55 -69 22 -70 510 l0 440 32 35 c29 33 86 66 168 100 45 19 151 41 229 48 68 7 70 8 101 52 17 25 46 52 64 62 45 22 45 23 32 57 -9 20 -27 35 -61 49 -59 25 -83 57 -74 101 13 64 108 95 151 49 26 -28 29 -43 20 -90 -6 -29 -3 -47 14 -80 12 -24 23 -44 24 -46 7 -8 45 20 45 32 0 16 52 116 92 176 27 39 29 48 20 78 -12 39 -8 58 21 90 28 30 92 30 124 0z m-1068 -887 c20 -13 19 -531 -2 -542 -23 -13 -78 8 -114 43 l-33 32 0 201 0 201 33 31 c28 27 48 36 92 41 6 1 16 -2 24 -7z m1678 -38 l33 -38 0 -188 c0 -187 0 -189 -25 -222 -32 -41 -85 -68 -120 -59 l-25 6 0 268 c0 205 3 270 13 274 6 3 30 4 52 1 31 -3 47 -12 72 -42z"/> <path d="M1420 1955 c-59 -17 -129 -35 -162 -42 -60 -12 -59 -8 -61 -393 l-1 -352 35 -19 c18 -10 43 -18 55 -19 11 0 25 -5 31 -11 6 -6 42 -15 80 -20 37 -5 91 -13 118 -18 67 -13 379 -13 435 0 25 6 72 14 105 18 33 5 76 14 95 21 82 30 110 44 110 54 6 143 -2 702 -10 711 -10 12 -113 47 -170 59 -14 2 -43 9 -65 15 -61 16 -539 13 -595 -4z m605 -100 c132 -34 139 -38 131 -84 -3 -21 -1 -52 4 -71 5 -19 8 -36 5 -38 -4 -5 -28 14 -53 41 -29 31 -69 47 -119 47 -53 0 -133 -28 -133 -47 0 -7 -6 -10 -14 -7 -8 3 -18 -5 -25 -23 -6 -15 -15 -35 -20 -43 -27 -46 -33 -68 -22 -88 6 -12 11 -34 11 -49 0 -61 12 -114 25 -109 17 6 40 -21 40 -48 0 -18 5 -20 32 -18 25 3 32 0 27 -11 -8 -21 23 -29 84 -21 46 6 59 12 96 52 25 27 48 42 54 38 7 -4 12 -31 12 -61 0 -47 -4 -56 -30 -79 -30 -24 -49 -31 -150 -56 -25 -6 -122 -14 -217 -17 -172 -6 -225 -1 -348 32 -27 8 -63 16 -78 20 -31 6 -59 51 -40 63 6 4 13 25 15 46 3 43 26 61 35 28 3 -12 15 -22 27 -24 14 -2 20 -9 18 -20 -2 -14 4 -18 25 -18 15 0 44 -3 64 -6 31 -5 41 -1 85 36 51 45 84 97 104 166 14 47 7 76 -42 182 -26 57 -31 62 -53 56 -15 -4 -25 -2 -25 4 0 6 -17 16 -37 21 -51 14 -108 -2 -143 -41 -16 -18 -35 -28 -43 -25 -17 6 -30 102 -18 126 9 17 105 51 144 51 12 0 29 5 37 10 8 5 108 10 227 10 194 0 221 -2 308 -25z m-516 -170 c49 -25 71 -76 71 -161 0 -74 -8 -99 -44 -141 -14 -16 -31 -23 -56 -23 -123 0 -152 251 -37 320 38 24 32 23 66 5z m521 -15 c59 -59 77 -163 40 -234 -37 -73 -63 -87 -128 -70 -38 11 -66 78 -67 159 0 59 5 76 27 111 15 23 33 44 40 47 29 12 69 6 88 -13z"/> </g> </svg> 